<svg width="24" height="24" viewBox="0 0 24 24" fill="none" xmlns="http://www.w3.org/2000/svg">
<g clip-path="url(#clip0_486_6696)">
<path fill-rule="evenodd" clip-rule="evenodd" d="M23.3083 8.20934C23.0118 6.03522 22.2989 3.66345 22.0659 2.91522C21.8894 2.17404 21.4165 1.09404 20.88 1.17169C20.2871 1.24934 20.1671 1.84934 20.0542 2.37169C19.9342 2.89404 19.2283 4.82816 18.6353 5.6611C18.1059 6.49404 17.6894 6.66345 17.3365 6.67051C17.04 6.67051 16.0377 6.45875 15.0847 6.42345C14.1389 6.3811 12.1271 6.31051 9.99533 6.73404C7.8071 7.15757 6.02827 7.91992 4.36945 9.21875C3.98121 9.52228 3.64239 9.83992 3.33886 10.1646H4.30592V19.8705H2.11768V12.3317L1.8071 12.4164C1.59533 12.854 1.40474 13.2987 1.22827 13.7717C0.515331 15.5082 0.57886 17.7882 1.10827 19.4117C1.63768 21.0352 3.95298 22.7364 7.50357 23.3011C10.9977 23.8658 14.9012 23.7599 18.8683 21.3529C22.8918 18.9387 23.1883 15.5929 23.4847 13.8493C23.7247 12.1058 23.6047 10.3905 23.3083 8.21639V8.20934ZM12.36 17.0399C12.0636 19.4752 10.7012 19.8635 9.04239 20.0752C7.4471 20.287 5.90827 19.4399 5.4918 19.0235C5.13886 18.607 4.89886 18.4093 4.89886 18.4093L6.49415 16.9623C6.49415 16.9623 7.38357 18.2399 8.74592 18.1552C10.1647 18.0705 10.2283 17.407 10.1647 16.694C10.1083 15.9882 9.27533 15.734 8.56945 15.734C7.86357 15.734 7.3271 15.7482 7.3271 15.7482L7.03062 14.3293L9.39533 12.0282H5.54827L5.4918 10.2282H12.12V11.8023L9.6918 14.1387C9.6918 14.1387 12.593 14.5835 12.353 17.0187L12.36 17.0399ZM19.9342 17.3787C19.5812 19.2282 18.1553 20.1105 16.3836 20.1035C14.2518 20.1035 12.5365 18.6352 12.5365 18.6352L13.8989 17.047C13.8989 17.047 14.1953 17.5764 15.1977 17.9082C16.1436 18.2399 16.9765 18.254 17.5059 17.7246C18.0353 17.1952 18.0989 15.7905 16.793 15.5646C15.4306 15.3387 14.4283 15.8258 14.4283 15.8258L13.1859 15.0282L13.4824 10.2423H19.5177L19.5742 12.1623L15.4306 12.0917L15.2542 13.7787C15.2542 13.7787 16.0236 13.3976 17.6189 13.694C19.3977 14.0187 20.2236 15.7623 19.9271 17.3787H19.9342Z" fill="#E72127"/>
<path d="M2.25184 0.705933C2.42831 0.705933 2.62596 0.727109 2.78831 0.875344C2.96478 1.03064 2.98596 1.22829 2.98596 1.36946C2.98596 1.62358 2.88713 1.77182 2.80949 1.84946C2.64713 2.01182 2.43537 2.03299 2.28713 2.03299H1.99772V2.75299H1.52478V0.705933H2.24478H2.25184ZM2.00478 1.64476H2.17419C2.23772 1.64476 2.35066 1.64476 2.42831 1.56711C2.47066 1.52476 2.50596 1.45417 2.50596 1.3624C2.50596 1.27064 2.47772 1.20711 2.42831 1.16476C2.35772 1.09417 2.2589 1.08711 2.16713 1.08711H2.00478V1.64476Z" fill="black"/>
<path d="M4.44012 1.10123H3.75541V1.49652H4.40482V1.89181H3.75541V2.34358H4.44012V2.73887H3.28247V0.705933H4.44012V1.10123Z" fill="black"/>
<path d="M5.54129 0.705933C5.80247 0.705933 5.96482 0.790639 6.06364 0.882403C6.14835 0.967109 6.24011 1.11534 6.24011 1.34123C6.24011 1.46829 6.21188 1.63064 6.07776 1.7577C6.00717 1.82829 5.90835 1.88476 5.79541 1.91299L6.42364 2.74593H5.84482L5.29423 1.94123V2.74593H4.82129V0.705933H5.53423H5.54129ZM5.29423 1.63064H5.40011C5.48482 1.63064 5.60482 1.62358 5.68247 1.53887C5.71776 1.50358 5.76011 1.44005 5.76011 1.34123C5.76011 1.22829 5.70364 1.16476 5.66835 1.13652C5.5907 1.08005 5.4707 1.07299 5.40717 1.07299H5.29423V1.63064Z" fill="black"/>
<path d="M7.33427 1.10123V2.74593H6.86133V1.10123H6.41663V0.705933H7.77898V1.10123H7.33427Z" fill="black"/>
<path d="M9.09902 2.36478H8.32961L8.17431 2.75301H7.68726L8.51314 0.713013H8.94373L9.74843 2.75301H9.26137L9.10608 2.36478H9.09902ZM8.97196 1.99772L8.71784 1.31301L8.46373 1.99772H8.97196Z" fill="black"/>
<path d="M9.87549 2.74593L10.2002 0.705933H10.5955L11.1037 1.92711L11.612 0.705933H12.0073L12.332 2.74593H11.859L11.6967 1.52476L11.1884 2.74593H11.0261L10.5178 1.52476L10.3555 2.74593H9.88255H9.87549Z" fill="black"/>
<path d="M13.165 0.705933V2.74593H12.692V0.705933H13.165Z" fill="black"/>
<path d="M13.6237 2.74593V0.705933H14.0331L15.1413 2.02593V0.705933H15.6142V2.74593H15.2048L14.0966 1.42593V2.74593H13.6237Z" fill="black"/>
<path d="M17.266 2.36478H16.4966L16.3413 2.75301H15.8542L16.6801 0.713013H17.1107L17.9154 2.75301H17.4284L17.2731 2.36478H17.266ZM17.1319 1.99772L16.8778 1.31301L16.6237 1.99772H17.1319Z" fill="black"/>
<path d="M2.9153 5.20233C2.74589 5.28704 2.61177 5.30116 2.49883 5.30116C2.15295 5.30116 1.91295 5.18116 1.75765 5.02586C1.58824 4.86351 1.46118 4.60939 1.46118 4.30586C1.46118 4.00233 1.58824 3.76233 1.75765 3.59292C1.92706 3.43057 2.16706 3.31763 2.46353 3.31763C2.59059 3.31763 2.73177 3.34586 2.9153 3.42351V3.92469C2.81648 3.82586 2.6753 3.72704 2.47059 3.72704C2.3153 3.72704 2.18118 3.77645 2.08236 3.87527C1.97648 3.9741 1.90589 4.12939 1.90589 4.31292C1.90589 4.51057 1.98353 4.64469 2.06824 4.72939C2.11059 4.77174 2.24471 4.88469 2.47765 4.88469C2.59059 4.88469 2.74589 4.85645 2.90824 4.68704V5.18822L2.9153 5.20233Z" fill="#1B75B7"/>
<path d="M4.36936 4.90603H3.65642L3.51524 5.26603H3.06348L3.82583 3.37427H4.22818L4.97642 5.26603H4.52465L4.38348 4.90603H4.36936ZM4.25642 4.57427L4.02348 3.93897L3.79054 4.57427H4.25642Z" fill="#1B75B7"/>
<path d="M5.6188 3.37425V4.89189H6.20468V5.25895H5.18115V3.36719H5.6188V3.37425Z" fill="#1B75B7"/>
<path d="M6.88943 3.37425V4.89189H7.47531V5.25895H6.45178V3.36719H6.88943V3.37425Z" fill="#1B75B7"/>
<path d="M9.74819 5.20246C9.57877 5.28716 9.44466 5.30128 9.33172 5.30128C8.98583 5.30128 8.74583 5.18128 8.59054 5.02598C8.42113 4.86363 8.29407 4.60951 8.29407 4.30598C8.29407 4.00245 8.42113 3.76246 8.59054 3.59304C8.75995 3.43069 8.99995 3.31775 9.29642 3.31775C9.42348 3.31775 9.56466 3.34598 9.74819 3.42363V3.92481C9.64936 3.82598 9.50819 3.72716 9.30348 3.72716C9.14819 3.72716 9.01407 3.77657 8.91524 3.8754C8.80936 3.97422 8.73877 4.12951 8.73877 4.31304C8.73877 4.51069 8.81642 4.64481 8.90113 4.72951C8.94348 4.77187 9.0776 4.88481 9.31054 4.88481C9.42348 4.88481 9.57877 4.85657 9.74113 4.68716V5.18834L9.74819 5.20246Z" fill="#1B75B7"/>
<path d="M11.16 3.74131H10.5318V4.10836H11.1318V4.47542H10.5318V4.89189H11.16V5.25895H10.0941V3.36719H11.16V3.73425V3.74131Z" fill="#1B75B7"/>
<path d="M11.52 5.26603V3.37427H11.9012L12.9247 4.59544V3.37427H13.3624V5.26603H12.9812L11.9577 4.04486V5.26603H11.52Z" fill="#1B75B7"/>
<path d="M14.4352 3.74133V5.25897H13.9975V3.74133H13.5881V3.37427H14.8446V3.74133H14.4352Z" fill="#1B75B7"/>
<path d="M16.1435 3.74131H15.5153V4.10836H16.1153V4.47542H15.5153V4.89189H16.1435V5.25895H15.0776V3.36719H16.1435V3.73425V3.74131Z" fill="#1B75B7"/>
<path d="M17.16 3.37427C17.4 3.37427 17.5482 3.45191 17.64 3.53662C17.7176 3.61427 17.8023 3.74839 17.8023 3.96015C17.8023 4.08015 17.7741 4.22839 17.6541 4.34839C17.5906 4.41191 17.4988 4.46839 17.3929 4.48956L17.9718 5.26603H17.4423L16.9341 4.5178V5.26603H16.4965V3.37427H17.16ZM16.9341 4.23544H17.0329C17.1106 4.23544 17.2165 4.22839 17.2941 4.15074C17.3223 4.1225 17.3647 4.05897 17.3647 3.96721C17.3647 3.86133 17.3153 3.80486 17.28 3.77662C17.2094 3.72015 17.0965 3.72015 17.04 3.72015H16.9412V4.23544H16.9341Z" fill="#1B75B7"/>
</g>
<defs>
<clipPath id="clip0_486_6696">
<rect width="24" height="24" fill="white"/>
</clipPath>
</defs>
</svg>
