<svg width="523" height="300" viewBox="0 0 523 300" fill="none" xmlns="http://www.w3.org/2000/svg">
<path d="M322.251 162.934C310.645 174.621 296.926 182.369 281.108 186.406C275.508 187.836 269.835 188.792 264.011 188.539C261.556 188.433 260.348 187.638 260.062 185.137C259.85 183.284 259.996 181.358 260.223 179.494C261.271 170.868 263.409 162.525 267.039 154.601C274.168 139.042 284.929 126.924 300.385 119.138C307.338 115.635 314.132 111.814 321 108.142C321.592 107.825 322.176 107.463 322.807 107.25C324.606 106.642 325.615 107.263 325.602 109.16C325.587 111.108 325.451 113.082 325.101 114.996C323.11 125.886 317.986 135.275 311.03 143.744C307.03 148.613 302.414 152.814 296.934 155.976C293.366 158.035 289.578 159.638 285.631 160.839C284.99 161.034 284.307 161.241 283.657 161.205C283.184 161.178 282.509 160.864 282.334 160.488C282.154 160.103 282.349 159.412 282.603 158.988C282.909 158.48 283.421 158.078 283.893 157.691C288.204 154.165 291.772 149.979 294.859 145.37C296.098 143.52 296.977 141.499 297.465 139.322C297.598 138.73 297.724 138.108 297.683 137.512C297.59 136.181 296.363 135.344 295.066 135.713C292.888 136.333 291.091 137.606 289.486 139.158C286.01 142.517 283.334 146.471 281.059 150.702C278.38 155.687 276.172 160.848 275.085 166.454C274.37 170.147 276.203 170.492 278.66 169.993C280.686 169.582 282.675 168.868 284.597 168.084C290.955 165.492 296.596 161.684 302.016 157.536C309.973 151.448 316.791 144.264 322.366 135.95C327.969 127.594 332.382 118.668 334.63 108.788C335.406 105.383 336.084 101.958 336.079 98.4403C336.075 95.5108 336.115 92.5802 336.04 89.6525C336.019 88.8219 335.776 87.9475 335.429 87.1864C334.902 86.0284 334.187 85.9026 333.292 86.7811C332.2 87.8531 331.188 89.008 330.165 90.1487C326.268 94.4966 322.253 98.7538 317.23 101.808C313.57 104.034 309.731 105.985 305.884 107.883C299.723 110.921 293.45 113.729 287.84 117.78C280.865 122.818 275.311 129.11 270.999 136.519C269.428 139.221 267.943 141.973 266.395 144.689C266.05 145.294 265.795 146.258 264.857 145.94C263.934 145.628 264.289 144.763 264.392 144.035C266.056 132.328 271.386 122.342 278.734 113.271C283.477 107.414 289.407 102.991 295.735 99.0661C300.11 96.3522 304.692 93.97 309.056 91.2398C314.622 87.7576 319.5 83.5053 322.821 77.7081C326.003 72.153 327.91 66.1782 328.672 59.8358C328.868 58.197 328.933 56.5429 329.086 54.8983C329.137 54.3529 329.229 53.8029 329.38 53.277C329.629 52.406 330.118 51.7378 331.091 51.5555C332.044 51.3769 332.827 51.7054 333.338 52.4715C334.358 54 335.355 55.5484 336.266 57.1435C341.827 66.8909 345.397 77.3318 346.983 88.4344C347.817 94.2684 348.091 100.151 347.718 106.028C346.896 118.984 343.513 131.249 337.321 142.69C333.3 150.119 328.356 156.882 322.251 162.934Z" fill="#008F75"/>
<path d="M279.891 4.48405C286.259 6.26983 291.925 9.09951 296.829 13.3294C301.987 17.7791 306.124 23.0132 307.786 29.7328C309.762 37.7206 308.342 45.1654 303.182 51.7003C300.346 55.2927 296.565 57.6652 292.367 59.4102C287.688 61.3557 283.37 63.8942 279.711 67.4327C278.616 68.4911 277.722 69.7544 276.724 70.9147C276.213 71.5099 276.079 72.1358 276.684 72.7026C277.276 73.2574 277.911 73.0623 278.509 72.6207C279.15 72.1477 279.8 71.6855 280.458 71.2369C284.899 68.211 289.927 66.6949 295.104 65.5702C299.788 64.5525 304.365 63.2474 308.575 60.8661C315.403 57.0039 319.318 51.2143 320.225 43.4155C320.33 42.5073 320.434 41.5963 320.473 40.6837C320.509 39.8238 320.894 39.2561 321.731 39.1271C322.59 38.9946 323.161 39.5034 323.379 40.2781C323.809 41.8072 324.257 43.3427 324.52 44.9053C326.026 53.8436 324.072 62.053 319.082 69.5554C316.21 73.8743 312.112 76.7644 307.42 78.7666C304.671 79.94 301.781 80.804 298.919 81.694C289.307 84.6833 280.685 89.472 272.959 95.8841C269.037 99.1402 265.475 102.767 262.264 106.733C260.835 108.498 259.316 108.848 257.452 107.614C249.568 102.393 242.86 96.0598 238.62 87.4314C232.62 75.2209 234.767 60.6783 244.691 50.8256C248.167 47.3742 252.109 44.6848 256.533 42.5737C263.098 39.4407 268.843 35.2317 272.847 28.9943C275.621 24.6731 277.159 19.9858 277.15 14.795C277.145 11.8961 276.903 9.05806 276.117 6.26249C275.59 4.38752 276.188 3.75029 278.142 4.04387C278.684 4.12524 279.209 4.31401 279.891 4.48405Z" fill="#97DD4F"/>
<path d="M198.49 109.805C187.64 105.75 181 98.1839 179.203 86.8883C177.691 77.3819 180.479 69.0026 187.244 62.0286C192.146 56.9764 198.199 54.2852 205.101 53.4986C207.205 53.2589 209.381 53.4817 211.509 53.6684C213.923 53.8801 215.862 52.8791 216.724 50.8043C217.181 49.7035 217.201 48.6553 216.576 47.64C216.031 46.7543 215.457 45.884 214.854 45.0363C212.732 42.0511 211.55 38.6839 211.589 35.0763C211.693 25.4276 219.037 18.5319 227.442 17.9306C235.882 17.3268 243.894 22.9407 245.522 31.5115C247.343 41.099 241.572 49.9342 231.78 51.8214C230.468 52.0744 229.104 52.0527 227.772 52.2212C225.748 52.4773 224.457 53.7654 224.083 55.7564C223.829 57.1126 224.347 58.1393 225.328 59.0129C226.562 60.1114 227.831 61.1768 229 62.3409C229.864 63.2006 230.593 64.1954 231.382 65.1299C232.128 66.0131 232.232 66.8791 231.696 67.989C228.561 74.4883 227.5 81.374 228.137 88.528C228.435 91.8869 229.134 95.1844 230.3 98.3491C230.962 100.146 230.697 101.513 229.221 102.764C223.483 107.625 217.148 111.136 209.445 111.502C205.744 111.678 202.136 111.034 198.49 109.805Z" fill="#00DABC"/>
<path d="M215.44 134.86C216.235 138.023 216.933 141.063 217.733 144.075C218.672 147.608 220.092 150.918 222.822 153.48C223.572 154.185 224.438 154.814 225.35 155.289C227.795 156.561 230.457 156.149 232.51 154.3C234.48 152.526 235.319 149.671 234.203 147.291C233.466 145.717 232.372 144.246 231.185 142.961C229.233 140.849 227.026 138.975 225.02 136.91C222.496 134.312 220.217 131.521 218.658 128.198C217.516 125.765 216.925 123.247 217.067 120.558C217.13 119.36 217.502 118.295 218.248 117.348C219.811 115.363 221.986 115.35 223.414 117.442C225.565 120.594 227.998 123.502 230.782 126.1C233.108 128.271 235.545 130.323 237.919 132.443C244.348 138.184 249.859 144.585 252.691 152.92C254.334 157.758 255.29 162.708 255.407 167.833C255.538 173.551 255.127 179.201 253.775 184.772C253.371 186.436 252.476 187.658 250.885 188.317C248.994 189.101 246.768 188.599 245.359 187.047C238.417 179.402 229.788 174.451 220.022 171.421C206.038 167.083 194.852 158.968 186.62 146.89C181.225 138.974 177.944 130.212 176.771 120.679C176.298 116.833 176.173 112.999 176.833 109.166C176.916 108.686 177.101 108.225 177.224 107.752C177.906 105.144 180.372 104.712 182.347 105.571C183.923 106.256 185.058 107.451 185.893 108.916C187.129 111.084 187.573 113.476 187.864 115.925C188.262 119.279 188.964 122.562 190.634 125.558C190.784 125.825 190.934 126.092 191.081 126.36C191.384 126.917 191.904 127.244 192.437 126.943C192.756 126.763 192.984 126.17 192.999 125.753C193.055 124.161 192.952 122.563 193.021 120.973C193.058 120.136 193.174 119.238 193.522 118.492C194.524 116.349 196.68 115.714 198.773 116.819C200.302 117.626 201.365 118.882 202.052 120.426C203.107 122.795 203.692 125.285 203.687 127.895C203.685 129.305 203.668 130.716 203.693 132.126C203.72 133.623 204.083 135.048 204.923 136.295C205.155 136.639 205.681 137.034 206.029 136.996C206.762 136.917 206.616 136.202 206.624 135.665C206.643 134.459 206.536 133.237 206.694 132.05C206.912 130.412 208.246 128.972 209.543 128.799C211.288 128.566 212.722 129.128 213.561 130.73C214.238 132.026 214.784 133.389 215.44 134.86Z" fill="#97DD4F"/>
<path d="M503.928 274.152C506.765 271.478 507.808 268.086 508.398 264.541C509.072 260.487 509.323 256.383 509.147 252.275C508.995 248.733 508.715 245.196 508.431 241.661C508.363 240.816 508.041 239.993 507.861 239.154C507.571 237.802 507.747 237.469 508.98 236.803C510.68 235.886 512.502 235.718 514.349 236.068C516.193 236.418 517.403 237.628 517.946 239.388C518.23 240.31 518.36 241.314 518.362 242.282C518.389 254.12 518.457 265.959 518.333 277.796C518.296 281.332 517.752 284.856 516.419 288.224C514.086 294.114 509.886 297.795 503.694 299.034C498.202 300.133 492.715 300.056 487.355 298.177C485.579 297.555 484.042 296.588 482.987 294.977C481.723 293.048 481.663 290.917 482.115 288.774C482.27 288.037 482.783 287.327 483.273 286.717C484.864 284.738 488.835 283.952 491.423 285.269C491.831 285.477 492.146 285.865 492.558 286.215C492.337 286.587 492.236 286.893 492.029 287.086C489.454 289.499 490.235 294.369 494.387 295.858C497.879 297.111 503.048 296.071 505.506 292.648C506.85 290.776 507.86 288.757 508.392 286.533C509.423 282.218 509.679 277.829 509.498 272.978C508.998 273.661 508.681 274.041 508.42 274.457C504.893 280.089 499.631 281.717 493.354 280.945C492.329 280.819 491.299 280.574 490.324 280.233C486.213 278.795 484.341 275.488 483.509 271.537C483.007 269.155 482.757 266.688 482.704 264.252C482.587 258.918 482.634 253.58 482.681 248.244C482.707 245.284 482.389 242.375 481.786 239.487C481.44 237.828 481.604 237.452 483.068 236.703C484.905 235.762 486.876 235.662 488.809 236.169C490.869 236.709 491.907 238.269 492.169 240.337C492.246 240.942 492.219 241.562 492.219 242.175C492.224 249.842 492.215 257.509 492.23 265.176C492.236 267.895 492.625 270.565 493.705 273.076C494.727 275.453 497.376 276.688 499.93 276.178C501.42 275.881 502.721 275.269 503.928 274.152Z" fill="black"/>
<path d="M347.769 224.137C347.527 226.427 347.174 228.552 347.112 230.686C347.001 234.486 347.062 238.291 347.062 242.094C347.062 242.553 347.129 243.012 347.195 243.851C347.614 243.168 347.82 242.818 348.04 242.477C350.722 238.31 354.505 236.086 359.497 235.93C362.366 235.839 365.154 236.084 367.656 237.646C370.935 239.693 372.987 242.651 373.991 246.357C374.683 248.911 374.926 251.517 375.163 254.152C375.582 258.798 375.032 263.307 373.921 267.783C373.14 270.933 371.682 273.778 369.521 276.183C366.923 279.075 363.557 280.595 359.734 281.218C354.594 282.057 349.563 281.496 344.665 279.928C342.705 279.3 340.898 278.176 339.055 277.214C337.926 276.626 337.482 275.658 337.484 274.336C337.516 257.529 337.491 240.721 337.54 223.914C337.543 222.855 337.857 221.703 338.348 220.762C339.063 219.396 340.298 218.614 341.955 218.629C343.493 218.643 345.024 218.582 346.46 219.295C348.075 220.097 348.364 220.611 348.073 222.347C347.982 222.89 347.883 223.433 347.769 224.137ZM350.973 244.851C348.424 248.687 347.253 252.99 347.107 257.513C346.934 262.837 347.104 268.172 347.029 273.5C347.01 274.916 347.642 275.736 348.823 276.151C350.143 276.615 351.506 277.028 352.885 277.239C358.35 278.076 361.797 275.183 363.147 271.489C364.337 268.232 364.879 264.851 365.075 261.429C365.239 258.56 365.183 255.671 365.088 252.795C365.002 250.219 364.556 247.684 363.616 245.261C362.319 241.918 359.784 240.59 356.314 241.369C354.184 241.846 352.496 242.971 350.973 244.851Z" fill="black"/>
<path d="M28.2282 224.589C25.5166 223.931 22.9874 224.035 20.4518 224.776C16.9347 225.804 14.6708 228.883 15.3411 233.349C15.8282 236.595 17.699 238.867 20.1916 240.637C22.9345 242.584 25.8291 244.331 28.732 246.038C32.9107 248.497 37.1095 250.881 40.4981 254.462C45.6873 259.946 46.4411 268.279 42.0896 274.424C39.8726 277.555 36.6514 279.363 33.049 280.408C26.7726 282.231 20.4235 282.064 14.1404 280.484C10.148 279.48 6.72513 277.494 4.97273 273.486C4.14904 271.602 3.8311 269.648 4.32388 267.572C4.82054 265.48 6.10735 264.282 8.11809 263.767C8.58817 263.647 9.08468 263.599 9.57151 263.579C12.0482 263.479 12.1367 263.551 12.1442 266.072C12.164 272.755 16.9191 276.907 22.3362 277.631C25.4413 278.046 28.3292 277.825 31.0816 276.375C34.3372 274.66 35.7253 271.633 35.4973 267.772C35.2902 264.268 33.5173 261.586 30.7283 259.656C27.8095 257.636 24.7169 255.868 21.7115 253.972C18.9647 252.24 16.1043 250.652 13.5283 248.693C10.5856 246.455 7.9771 243.794 6.96921 240.053C5.78198 235.646 5.74548 231.311 8.35607 227.312C10.1077 224.63 12.7294 223.059 15.6583 221.974C18.323 220.988 21.0879 220.508 23.942 220.465C27.5134 220.412 31.0791 220.447 34.5004 221.591C36.1141 222.131 37.7046 222.833 39.1754 223.686C41.5705 225.074 42.7855 227.328 43.0376 230.039C43.2644 232.478 42.2747 234.732 39.2568 235.219C38.5918 235.327 37.9299 235.504 37.2619 235.53C35.9699 235.58 35.5427 235.158 35.3518 233.871C35.0638 231.929 34.7188 230.005 33.6958 228.273C32.4856 226.223 30.5453 225.264 28.2282 224.589Z" fill="black"/>
<path d="M181.515 253.612C178.525 254.395 175.914 254.062 173.613 252.069C170.213 249.124 170.405 242.141 174.596 239.279C176.878 237.721 179.394 236.805 182.083 236.364C186.043 235.714 190.031 235.65 193.986 236.354C199.911 237.407 203.993 240.625 205.288 246.691C205.834 249.25 206.192 251.887 206.269 254.5C206.419 259.647 206.295 264.803 206.332 269.955C206.338 270.794 206.447 271.688 206.756 272.457C207.42 274.111 208.765 274.518 210.356 273.683C210.728 273.488 211.076 273.245 211.423 273.032C212.75 274.429 213.068 276.505 212.058 278.076C211.542 278.878 210.826 279.625 210.042 280.171C205.945 283.021 199.726 281.013 198.143 276.289C197.546 274.507 197.293 272.61 196.832 270.538C196.531 270.94 196.248 271.264 196.023 271.625C193.773 275.233 190.983 278.257 187.01 280.02C183.372 281.633 179.575 281.728 175.834 280.743C171.206 279.525 168.411 274.647 169.218 269.797C169.793 266.344 171.537 263.657 174.385 261.639C178.692 258.587 183.549 256.968 188.712 256.228C190.766 255.933 192.862 255.918 194.941 255.815C195.795 255.773 196.359 255.522 196.377 254.553C196.439 251.238 196.397 247.962 195.346 244.737C193.431 238.864 186.568 238.561 183.012 240.88C182.256 241.373 181.563 242.305 181.315 243.171C180.357 246.512 180.71 249.61 183.689 251.989C183.497 253.175 182.452 253.215 181.515 253.612ZM195.285 265.925C195.747 264.343 196.309 262.783 196.645 261.175C196.984 259.548 196.612 259.175 195.007 259.132C191.453 259.038 188.03 259.699 184.854 261.278C181.961 262.717 179.972 264.983 179.551 268.314C179.287 270.402 179.655 272.437 181.262 273.891C182.943 275.411 184.984 275.209 186.989 274.471C187.276 274.365 187.552 274.229 187.829 274.098C191.325 272.431 193.531 269.564 195.285 265.925Z" fill="black"/>
<path d="M301.491 241.197C298.591 243.869 299.513 249.258 301.662 251.129C302.023 251.444 302.456 251.677 302.855 251.947C302.868 252.137 302.881 252.326 302.894 252.516C302.613 252.644 302.327 252.763 302.052 252.903C299.044 254.428 295.999 254.676 293.175 252.641C290.558 250.756 289.72 248.026 290.214 244.863C290.698 241.762 292.459 239.682 295.212 238.263C298.172 236.739 301.335 236.081 304.602 235.974C307.719 235.871 310.831 235.833 313.932 236.569C319.61 237.917 323.032 241.404 324.291 247.013C324.69 248.791 324.92 250.64 324.949 252.461C325.034 257.855 324.957 263.251 324.998 268.646C325.006 269.737 325.136 270.856 325.41 271.909C325.928 273.894 327.309 274.497 329.196 273.703C330.792 273.03 330.877 273.095 331.34 274.67C331.963 276.791 331.15 278.406 329.576 279.708C327.027 281.816 321.324 282.156 318.609 278.975C317.62 277.816 317.049 276.212 316.586 274.72C316.162 273.353 316.14 271.861 315.901 270.142C315.088 271.368 314.423 272.437 313.693 273.459C310.918 277.342 307.358 280.176 302.563 280.981C298.899 281.597 295.228 281.63 291.926 279.377C290.165 278.175 288.976 276.58 288.493 274.547C287.242 269.289 288.692 264.772 293.694 261.324C297.931 258.403 302.699 256.904 307.739 256.223C309.735 255.953 311.766 255.935 313.782 255.811C315.126 255.727 315.33 255.583 315.383 254.352C315.518 251.211 315.278 248.108 314.322 245.088C313.42 242.241 311.694 240.2 308.627 239.733C306.159 239.358 303.715 239.509 301.491 241.197ZM315.284 262.82C315.304 262.699 315.328 262.578 315.344 262.457C315.791 259.064 315.787 258.986 312.35 259.155C308.821 259.329 305.409 260.067 302.437 262.128C298.877 264.596 297.507 268.499 298.888 272.053C299.578 273.828 300.867 274.798 302.769 274.964C304.563 275.121 306.179 274.593 307.642 273.617C311.469 271.063 313.994 267.554 315.284 262.82Z" fill="black"/>
<path d="M272.864 281.121C270.378 280.242 269.709 278.395 269.71 276.13C269.713 268.831 269.706 261.533 269.711 254.235C269.712 251.093 269.435 247.993 268.357 245.01C267.865 243.648 267.108 242.488 265.804 241.758C263.54 240.49 259.987 240.925 258.022 242.615C255.332 244.927 253.983 247.974 253.182 251.302C252.578 253.807 252.302 256.359 252.35 258.955C252.421 262.756 252.375 266.56 252.369 270.362C252.365 273.073 252.665 275.738 253.446 278.345C253.835 279.645 253.77 279.731 252.601 280.389C251.07 281.251 249.455 281.755 247.669 281.553C245.245 281.278 243.602 279.864 243.086 277.469C242.895 276.58 242.827 275.649 242.826 274.737C242.807 265.599 242.821 256.461 242.804 247.323C242.802 246.473 242.778 245.587 242.543 244.782C242.075 243.179 241.164 242.788 239.596 243.353C239.254 243.476 238.925 243.639 238.605 243.778C236.424 241.431 237.126 238.054 240.061 236.591C244.137 234.56 248.957 236.454 250.464 240.744C250.888 241.948 251.081 243.232 251.421 244.656C252.045 243.689 252.595 242.798 253.181 241.931C255.65 238.282 259.147 236.327 263.488 236C265.304 235.863 267.169 236.004 268.98 236.252C273.459 236.866 276.264 239.63 277.701 243.74C278.36 245.624 278.67 247.663 278.895 249.66C279.666 256.502 279.149 263.377 279.24 270.237C279.274 272.768 279.526 275.245 280.125 277.698C280.568 279.512 280.291 280.105 278.552 280.838C276.754 281.596 274.901 281.902 272.864 281.121Z" fill="black"/>
<path d="M79.8751 242.011C79.5769 240.848 79.324 239.836 79.0236 238.839C78.79 238.063 79.0433 237.562 79.7259 237.159C81.5449 236.085 83.4983 235.689 85.5702 236.017C87.6973 236.355 89.308 238.142 89.5079 240.305C89.5642 240.914 89.5439 241.531 89.5441 242.144C89.546 251.04 89.5323 259.935 89.5616 268.83C89.5655 269.985 89.7025 271.157 89.9302 272.29C90.2628 273.946 91.2896 274.479 92.9249 273.992C94.3362 273.572 94.7643 273.835 95.015 275.276C95.5658 278.443 94.0411 280.676 90.8417 281.265C89.8923 281.44 88.8658 281.604 87.94 281.429C83.9397 280.671 82.4178 279.075 81.4669 274.498C81.3688 274.026 81.3901 273.529 81.3294 272.666C80.9123 273.275 80.6354 273.61 80.4327 273.986C78.8702 276.878 76.7593 279.272 73.6483 280.456C68.9051 282.261 64.1747 282.236 59.6159 279.726C57.6282 278.632 56.4195 276.898 55.6543 274.827C54.6905 272.217 54.1579 269.519 54.1522 266.732C54.1412 261.334 54.2306 255.933 54.1137 250.537C54.0449 247.363 53.6812 244.193 53.4 241.026C53.3358 240.303 52.9933 239.606 52.9154 238.882C52.8686 238.447 52.932 237.824 53.2087 237.558C55.374 235.482 60.0691 235.494 61.6185 236.933C62.7638 237.997 63.4297 239.158 63.4045 240.78C63.3435 244.705 63.3859 248.632 63.3862 252.558C63.3865 256.116 63.298 259.677 63.4163 263.232C63.4996 265.732 63.8527 268.225 64.1123 270.718C64.1625 271.201 64.3391 271.67 64.4547 272.146C65.7977 277.68 71.717 277.914 74.9317 275.032C76.5266 273.602 77.6246 271.841 78.3708 269.873C79.598 266.636 80.2271 263.256 80.2873 259.805C80.3664 255.267 80.3345 250.726 80.2849 246.188C80.2702 244.846 80.0344 243.508 79.8751 242.011Z" fill="black"/>
<path d="M105.315 238.808C108.717 236.755 112.261 235.736 116.121 235.938C118.565 236.066 121.042 236.006 123.44 236.408C125.277 236.717 127.088 237.467 128.78 238.289C131.476 239.597 132.736 242.421 132.203 245.375C131.864 247.256 130.697 248.444 128.807 248.753C128.207 248.851 127.584 248.853 126.973 248.839C125.505 248.806 125.472 248.732 125.236 247.318C125.074 246.354 124.887 245.385 124.593 244.455C123.635 241.427 121.504 239.727 118.356 239.663C116.657 239.628 114.893 239.687 113.26 240.103C109.86 240.969 108.65 243.696 109.966 246.952C110.588 248.49 111.683 249.638 112.996 250.569C113.892 251.204 114.873 251.732 115.855 252.231C119.137 253.898 122.43 255.543 125.731 257.172C128.131 258.356 130.198 259.964 131.963 261.961C133.355 263.535 133.978 265.393 134.147 267.489C134.425 270.918 133.554 273.945 131.22 276.472C129.068 278.8 126.291 280.117 123.245 280.778C118.213 281.87 113.149 281.931 108.107 280.786C105.545 280.204 103.238 279.118 101.44 277.125C99.3502 274.808 98.9983 272.078 99.7826 269.215C100.467 266.717 102.257 266.075 104.731 265.876C105.952 265.777 106.345 266.383 106.482 267.69C106.641 269.204 106.696 270.785 107.198 272.194C108.222 275.069 110.491 276.754 113.413 277.394C115.947 277.949 118.532 277.851 121.043 277.118C125.593 275.791 126.831 271.094 123.415 267.822C122.243 266.699 120.783 265.815 119.331 265.058C116.342 263.499 113.251 262.136 110.237 260.623C107.873 259.435 105.705 257.986 103.872 256.009C100.345 252.204 99.9457 244.873 102.713 241.286C103.41 240.382 104.367 239.678 105.315 238.808Z" fill="black"/>
<path d="M143.688 242.732C143.56 241.409 142.71 241.469 141.898 241.53C140.922 241.604 139.951 241.799 138.977 241.81C137.618 241.825 137.465 241.603 137.63 240.321C137.676 239.956 137.728 239.593 137.79 239.23C138.047 237.71 138.668 237.152 140.257 237.059C140.93 237.02 141.609 237.07 142.281 237.026C143.448 236.948 143.644 236.769 143.687 235.571C143.735 234.224 143.705 232.874 143.706 231.525C143.706 229.289 144.319 227.359 146.569 226.426C149.067 225.389 151.476 225.656 153.722 227.193C154.525 227.743 154.422 228.565 154.324 229.36C154.054 231.545 153.76 233.727 153.484 235.911C153.454 236.145 153.48 236.386 153.48 236.739C153.906 236.843 154.302 237.027 154.694 237.02C157.143 236.973 159.592 236.914 162.037 236.795C163.278 236.736 163.514 236.9 163.598 238.202C163.76 240.695 162.677 241.612 160.57 241.505C158.734 241.412 156.889 241.465 155.048 241.496C153.498 241.521 153.303 241.681 153.299 243.166C153.273 252.179 153.236 261.192 153.288 270.204C153.306 273.276 155.585 274.819 158.579 273.983C158.932 273.884 159.277 273.75 159.622 273.625C160.907 273.161 161.488 273.404 161.659 274.731C161.956 277.02 161.937 278.393 159.51 279.909C158.135 280.768 156.646 281.321 154.988 281.236C153.463 281.157 151.898 281.239 150.426 280.913C147.175 280.194 145.25 277.937 144.434 274.825C143.988 273.126 143.75 271.325 143.736 269.567C143.666 260.678 143.7 251.787 143.688 242.732Z" fill="black"/>
<path d="M465.971 281.236C465.31 281.239 464.816 281.201 464.329 281.247C458.755 281.768 454.918 277.392 454.67 271.971C454.62 270.869 454.641 269.764 454.641 268.66C454.639 260.69 454.64 252.719 454.64 244.749C454.64 244.32 454.646 243.89 454.638 243.461C454.603 241.586 454.292 241.337 452.448 241.569C451.479 241.691 450.501 241.777 449.525 241.79C449.212 241.795 448.766 241.599 448.6 241.349C447.702 240.001 448.716 237.503 450.303 237.163C450.954 237.023 451.645 237.055 452.318 237.045C454.627 237.011 454.629 237.017 454.639 234.634C454.644 233.531 454.742 232.416 454.621 231.325C454.276 228.2 456.635 225.741 460.26 225.843C461.599 225.881 462.942 226.09 464.112 226.902C465.285 227.716 465.401 227.927 465.154 229.33C464.867 230.957 464.595 232.588 464.327 234.218C464.278 234.519 464.264 234.828 464.257 235.134C464.22 236.811 464.404 237.049 466.133 237.026C468.458 236.996 470.783 236.887 473.107 236.782C474.157 236.735 474.458 236.932 474.512 237.962C474.537 238.446 474.499 238.947 474.396 239.421C474.056 240.981 473.486 241.45 471.848 241.476C469.946 241.507 468.043 241.469 466.141 241.493C464.388 241.515 464.269 241.651 464.223 243.381C464.217 243.626 464.224 243.872 464.221 244.117C464.108 252.14 463.984 260.163 463.894 268.186C463.884 269.096 463.974 270.026 464.166 270.915C464.74 273.578 466.758 274.759 469.386 274.025C469.796 273.91 470.186 273.72 470.582 273.556C471.745 273.076 472.025 273.204 472.445 274.419C473.186 276.563 472.356 278.879 470.147 280.027C468.932 280.659 467.485 280.846 465.971 281.236Z" fill="black"/>
<path d="M417.572 273.359C418.785 274.3 419.918 274.212 421.127 273.633C422.357 273.043 422.877 273.319 423.226 274.608C423.858 276.939 422.618 279.474 420.22 280.459C416.943 281.805 413.681 281.66 410.732 279.644C408.347 278.013 407.492 275.425 407.152 272.666C407.07 272.001 407.113 271.319 407.113 270.645C407.111 255.193 407.111 239.742 407.111 224.29C407.111 224.167 407.121 224.044 407.11 223.922C406.836 220.729 408.729 218.385 412.522 218.613C413.824 218.692 415.095 218.75 416.261 219.388C417.501 220.065 417.736 220.498 417.467 221.9C416.562 226.611 416.362 231.376 416.356 236.154C416.342 247.007 416.352 257.86 416.352 268.713C416.352 270.321 416.449 271.905 417.572 273.359Z" fill="black"/>
<path d="M256.441 1.77823C262.478 1.39881 268.484 6.51104 269.066 12.8821C269.622 18.9821 266.353 23.2971 262.722 25.3475C258.443 27.7643 252.752 27.4002 248.875 24.3467C244.734 21.085 243.193 16.7534 244.25 11.6487C245.302 6.57251 248.532 3.3855 253.538 2.05431C254.411 1.82235 255.356 1.86332 256.441 1.77823Z" fill="#00D9BC"/>
<path d="M219.438 237.319C221.335 235.848 223.413 235.749 225.512 236.011C227.729 236.287 229.137 237.986 229.168 240.38C229.216 244.178 229.144 247.978 229.193 251.776C229.284 258.814 229.375 265.852 229.58 272.887C229.632 274.642 230.101 276.388 230.418 278.132C230.656 279.443 230.6 279.729 229.468 280.395C228.127 281.183 226.678 281.662 225.093 281.567C222.415 281.407 220.429 279.661 220.208 277.407C220.118 276.496 219.984 275.584 219.982 274.672C219.965 265.543 219.949 256.414 219.986 247.284C219.997 244.633 219.76 242.03 219.099 239.464C218.914 238.75 218.664 238.028 219.438 237.319Z" fill="black"/>
<path d="M431.797 247.771C431.446 244.867 431.148 242.133 430.726 239.418C430.468 237.76 430.489 237.638 431.926 236.79C433.685 235.751 435.564 235.773 437.459 236.09C438.968 236.342 440.032 237.315 440.507 238.735C440.83 239.701 440.984 240.767 440.989 241.789C441.034 250.8 441.032 259.812 441.036 268.823C441.037 271.957 441.366 275.052 442.081 278.105C442.178 278.519 442.234 278.942 442.329 279.47C440.203 281.342 437.819 282.094 435.046 281.247C433.061 280.641 432.061 279.194 431.836 277.189C431.761 276.522 431.799 275.842 431.799 275.167C431.797 266.095 431.797 257.022 431.797 247.771Z" fill="black"/>
<path d="M394.614 263.19C394.735 267.045 394.805 270.719 395.006 274.385C395.076 275.655 395.373 276.938 395.752 278.158C396.072 279.187 395.778 279.774 394.925 280.286C393.526 281.126 392.06 281.653 390.396 281.581C387.315 281.447 385.5 279.692 385.421 276.585C385.348 273.765 385.378 270.943 385.375 268.122C385.37 262.296 385.351 256.469 385.381 250.643C385.402 246.651 385.3 242.678 384.201 238.804C384 238.095 384.215 237.622 384.783 237.23C386.972 235.719 389.384 235.459 391.8 236.364C393.697 237.074 394.555 238.729 394.576 240.744C394.611 244.239 394.608 247.735 394.613 251.231C394.618 255.156 394.614 259.081 394.614 263.19Z" fill="black"/>
<path d="M202.02 48.0034C199.737 50.0801 195.166 49.7914 193.186 47.5528C191.357 45.4844 190.888 42.2933 192.281 39.8724C193.734 37.3471 196.704 36.1392 199.558 36.9119C202.361 37.6709 204.129 40.057 204.194 43.0106C204.237 44.9825 203.545 46.5875 202.02 48.0034Z" fill="#00D8BB"/>
<path d="M393.973 221.518C396.209 224.236 395.621 228.443 392.417 230.143C390.31 231.262 387.5 230.958 385.714 229.383C384.109 227.968 383.443 225.332 384.181 223.321C384.984 221.134 387.199 219.457 389.503 219.462C391.212 219.465 392.747 220.037 393.973 221.518Z" fill="black"/>
<path d="M432.137 229.39C429.188 226.201 429.991 221.633 433.673 219.961C436.099 218.86 438.873 219.57 440.576 221.728C442.162 223.738 442.109 226.621 440.448 228.692C438.864 230.668 435.957 231.384 433.648 230.335C433.152 230.109 432.71 229.766 432.137 229.39Z" fill="black"/>
<path d="M219.662 228.461C217.044 225.078 219.501 220.063 223.478 219.508C225.035 219.291 226.34 219.773 227.636 220.549C230.211 222.093 230.579 226.38 228.953 228.549C227.13 230.982 223.319 231.578 220.932 229.713C220.502 229.377 220.142 228.951 219.662 228.461Z" fill="black"/>
</svg>
